<svg id="Layer_1" data-name="Layer 1" xmlns="http://www.w3.org/2000/svg" viewBox="0 0 1000 1000"><defs><style>.cls-1{fill:#171617;}.cls-2{fill:#fff;}</style></defs><title>vivek-english</title><rect class="cls-1" x="-4.23" y="-10.23" width="1011.1" height="1020.1"/><path class="cls-2" d="M386.86,364.35h21.81L374,466.23H350.49L315.92,364.35h21.81L356.9,425q1.59,5.36,3.31,12.5c1.14,4.77,1.84,8.07,2.12,9.93q.76-6.41,5.23-22.43Z"/><path class="cls-2" d="M416.06,368.18q0-10.38,11.57-10.38t11.57,10.38a10.11,10.11,0,0,1-2.9,7.7c-1.92,1.84-4.82,2.75-8.67,2.75Q416.07,378.65,416.06,368.18Zm22.16,98.05H417V388.32h21.25Z"/><path class="cls-2" d="M476.2,466.23l-29.68-77.91h22.23l15.05,44.39a71.47,71.47,0,0,1,3,16h.56a60.08,60.08,0,0,1,3.14-16l15-44.39H527.7L498,466.23Z"/><path class="cls-2" d="M571.25,467.62q-18.81,0-29.4-10.38t-10.59-29.41q0-19.57,9.79-30.28t27.07-10.69q16.51,0,25.71,9.41t9.2,26v10.31H552.79q.35,9.06,5.36,14.15t14.08,5.08a58.2,58.2,0,0,0,13.31-1.46,66.65,66.65,0,0,0,13.1-4.67v16.45a49.61,49.61,0,0,1-11.92,4.14A74.83,74.83,0,0,1,571.25,467.62Zm-3-65.64q-6.76,0-10.59,4.28t-4.4,12.16H583.1q-.14-7.87-4.11-12.16T568.26,402Z"/><path class="cls-2" d="M637.88,423.86,647.14,412,669,388.32h24L662,422.12l32.82,44.11H670.28l-22.44-31.57L638.71,442v24.25H617.46V357.8h21.25v48.36l-1.11,17.7Z"/><path class="cls-2" d="M280.94,548h21.81L268.12,649.91H244.56L210,548h21.81L251,608.66q1.6,5.37,3.32,12.51t2.12,9.93q.76-6.4,5.23-22.44Z"/><path class="cls-2" d="M359.13,649.91,355,639.32h-.56q-5.37,6.76-11,9.38t-14.81,2.61q-11.22,0-17.66-6.41t-6.45-18.26q0-12.4,8.68-18.29t26.17-6.52l13.52-.42V598q0-11.85-12.13-11.85-9.35,0-22,5.65l-7-14.36a63.39,63.39,0,0,1,29.83-7q15.68,0,24,6.83T374,598v51.91Zm-6.28-36.09-8.22.28q-9.27.27-13.8,3.34t-4.52,9.34q0,9,10.31,9,7.38,0,11.81-4.25t4.43-11.29v-6.41Z"/><path class="cls-2" d="M417.67,651.31q-13.74,0-21.57-10.66t-7.84-29.55q0-19.17,8-29.86t22-10.7q14.7,0,22.44,11.43h.7a86.69,86.69,0,0,1-1.61-15.54V541.49h21.33V649.91H444.77l-4.11-10.1h-.91Q432.51,651.3,417.67,651.31Zm7.45-16.93q8.16,0,11.95-4.74t4.15-16.1v-2.3q0-12.54-3.87-18t-12.58-5.43a12.47,12.47,0,0,0-11,6q-3.94,6-3.94,17.53t4,17.24A13,13,0,0,0,425.12,634.38Z"/><path class="cls-2" d="M551.25,610.82q0,19-10,29.76t-28,10.73a39.15,39.15,0,0,1-19.79-4.91,32.77,32.77,0,0,1-13.17-14.11,47.54,47.54,0,0,1-4.6-21.47q0-19.1,10-29.68t28-10.6a39.32,39.32,0,0,1,19.79,4.88,32.46,32.46,0,0,1,13.17,14Q551.26,598.57,551.25,610.82Zm-53.86,0q0,11.56,3.79,17.49t12.37,5.93q8.51,0,12.23-5.89t3.73-17.53q0-11.57-3.76-17.35t-12.34-5.78q-8.5,0-12.26,5.75T497.39,610.82Z"/><path class="cls-2" d="M587.21,649.91H566V541.49h21.25Z"/><path class="cls-2" d="M605.75,551.87q0-10.38,11.57-10.38t11.56,10.38c0,3.3-1,5.86-2.89,7.7s-4.82,2.75-8.67,2.75Q605.74,562.32,605.75,551.87Zm22.16,98H606.65V572h21.26Z"/><path class="cls-2" d="M636.2,572h23.28l14.7,43.83a60.74,60.74,0,0,1,2.58,13.52h.42a60.14,60.14,0,0,1,3-13.52L694.6,572h22.78l-33,87.87q-4.53,12.2-12.92,18.26a32.65,32.65,0,0,1-19.62,6.06,49.91,49.91,0,0,1-10.8-1.18V666.15a36,36,0,0,0,8.36.91,15.08,15.08,0,0,0,9.86-3.45q4.22-3.45,6.59-10.42l1.25-3.83Z"/><path class="cls-2" d="M775.16,649.91,771,639.32h-.55q-5.37,6.76-11,9.38t-14.81,2.61q-11.22,0-17.66-6.41t-6.45-18.26q0-12.4,8.68-18.29t26.17-6.52l13.51-.42V598q0-11.85-12.12-11.85-9.35,0-22,5.65l-7-14.36a63.39,63.39,0,0,1,29.83-7q15.67,0,24,6.83T790,598v51.91Zm-6.27-36.09-8.23.28q-9.27.27-13.8,3.34t-4.53,9.34q0,9,10.32,9,7.38,0,11.81-4.25t4.42-11.29v-6.41Z"/></svg>