<?xml version="1.0" encoding="utf-8"?>
<!-- Generator: Adobe Illustrator 23.0.1, SVG Export Plug-In . SVG Version: 6.00 Build 0)  -->
<svg version="1.1" id="Layer_1" xmlns="http://www.w3.org/2000/svg" xmlns:xlink="http://www.w3.org/1999/xlink" x="0px" y="0px"
	 viewBox="0 0 1000 1000" style="enable-background:new 0 0 1000 1000;" xml:space="preserve">
<style type="text/css">
	.st0{fill:#171617;}
	.st1{fill:#FFFFFF;}
</style>
<rect x="-4.2" y="-10.2" class="st0" width="1011.1" height="1020.1"/>
<g>
	<path class="st1" d="M398.2,380h19.6l-31.2,91.7h-21.2L334.3,380H354l17.2,54.6c1,3.2,2,7,3,11.3c1,4.3,1.7,7.3,1.9,8.9
		c0.5-3.8,2-10.6,4.7-20.2L398.2,380z"/>
	<path class="st1" d="M424.5,383.5c0-6.2,3.5-9.3,10.4-9.3c6.9,0,10.4,3.1,10.4,9.3c0,3-0.9,5.3-2.6,6.9c-1.7,1.7-4.3,2.5-7.8,2.5
		C427.9,392.9,424.5,389.7,424.5,383.5z M444.4,471.7h-19.1v-70.1h19.1V471.7z"/>
	<path class="st1" d="M478.6,471.7l-26.7-70.1h20l13.5,40c1.4,4.3,2.3,9.1,2.7,14.4h0.5c0.3-4.7,1.2-9.5,2.8-14.4l13.5-40h20
		l-26.7,70.1H478.6z"/>
	<path class="st1" d="M564.1,473c-11.3,0-20.1-3.1-26.5-9.3c-6.4-6.2-9.5-15.1-9.5-26.5c0-11.7,2.9-20.8,8.8-27.2
		c5.9-6.4,14-9.6,24.4-9.6c9.9,0,17.6,2.8,23.1,8.5c5.5,5.6,8.3,13.4,8.3,23.4v9.3h-45.2c0.2,5.4,1.8,9.7,4.8,12.7
		c3,3.1,7.2,4.6,12.7,4.6c4.2,0,8.2-0.4,12-1.3c3.8-0.9,7.7-2.3,11.8-4.2V468c-3.3,1.7-6.9,2.9-10.7,3.7
		C574.2,472.6,569.6,473,564.1,473z M561.4,413.9c-4.1,0-7.2,1.3-9.5,3.9c-2.3,2.6-3.6,6.2-4,10.9h26.8c-0.1-4.7-1.3-8.4-3.7-10.9
		C568.7,415.2,565.5,413.9,561.4,413.9z"/>
	<path class="st1" d="M624.1,433.6l8.3-10.7l19.6-21.3h21.6L645.8,432l29.5,39.7h-22.1l-20.2-28.4l-8.2,6.6v21.8h-19.1v-97.6h19.1
		v43.5l-1,15.9H624.1z"/>
	<path class="st1" d="M302.8,545.3h19.6L291.3,637h-21.2L239,545.3h19.6l17.2,54.6c1,3.2,2,7,3,11.3c1,4.3,1.7,7.3,1.9,8.9
		c0.5-3.8,2-10.6,4.7-20.2L302.8,545.3z"/>
	<path class="st1" d="M373.2,637l-3.7-9.5H369c-3.2,4.1-6.5,6.9-9.9,8.4c-3.4,1.6-7.9,2.4-13.3,2.4c-6.7,0-12-1.9-15.9-5.8
		c-3.9-3.8-5.8-9.3-5.8-16.4c0-7.4,2.6-12.9,7.8-16.5c5.2-3.5,13.1-5.5,23.6-5.9l12.2-0.4v-3.1c0-7.1-3.6-10.7-10.9-10.7
		c-5.6,0-12.2,1.7-19.8,5.1l-6.3-12.9c8.1-4.2,17-6.3,26.8-6.3c9.4,0,16.6,2,21.6,6.1c5,4.1,7.5,10.3,7.5,18.7V637L373.2,637
		L373.2,637L373.2,637z M367.6,604.5l-7.4,0.3c-5.6,0.2-9.7,1.2-12.4,3c-2.7,1.8-4.1,4.6-4.1,8.4c0,5.4,3.1,8.1,9.3,8.1
		c4.4,0,8-1.3,10.6-3.8c2.7-2.5,4-5.9,4-10.2L367.6,604.5L367.6,604.5z"/>
	<path class="st1" d="M425.9,638.3c-8.2,0-14.7-3.2-19.4-9.6c-4.7-6.4-7.1-15.3-7.1-26.6c0-11.5,2.4-20.5,7.2-26.9
		c4.8-6.4,11.4-9.6,19.8-9.6c8.8,0,15.6,3.4,20.2,10.3h0.6c-1-5.2-1.4-9.9-1.4-14v-22.5H465V637h-14.7l-3.7-9.1h-0.8
		C441.4,634.8,434.8,638.3,425.9,638.3z M432.6,623c4.9,0,8.5-1.4,10.8-4.3c2.3-2.8,3.5-7.7,3.7-14.5v-2.1c0-7.5-1.2-12.9-3.5-16.2
		c-2.3-3.3-6.1-4.9-11.3-4.9c-4.3,0-7.6,1.8-9.9,5.4c-2.4,3.6-3.5,8.9-3.5,15.8c0,6.9,1.2,12.1,3.6,15.5
		C424.8,621.3,428.2,623,432.6,623z"/>
	<path class="st1" d="M546.1,601.8c0,11.4-3,20.3-9,26.8c-6,6.4-14.4,9.7-25.1,9.7c-6.7,0-12.7-1.5-17.8-4.4
		c-5.1-2.9-9.1-7.2-11.9-12.7s-4.1-12-4.1-19.3c0-11.5,3-20.4,9-26.7c6-6.4,14.4-9.5,25.2-9.5c6.7,0,12.7,1.5,17.8,4.4
		c5.1,2.9,9.1,7.1,11.9,12.6C544.7,588.1,546.1,594.5,546.1,601.8z M497.6,601.8c0,6.9,1.1,12.2,3.4,15.7c2.3,3.6,6,5.3,11.1,5.3
		c5.1,0,8.8-1.8,11-5.3c2.2-3.5,3.4-8.8,3.4-15.8c0-6.9-1.1-12.1-3.4-15.6c-2.3-3.5-6-5.2-11.1-5.2c-5.1,0-8.8,1.7-11,5.2
		C498.8,589.6,497.6,594.9,497.6,601.8z"/>
	<path class="st1" d="M578.5,637h-19.1v-97.6h19.1V637z"/>
	<path class="st1" d="M595.2,548.8c0-6.2,3.5-9.3,10.4-9.3c6.9,0,10.4,3.1,10.4,9.3c0,3-0.9,5.3-2.6,6.9c-1.7,1.7-4.3,2.5-7.8,2.5
		C598.6,558.2,595.2,555.1,595.2,548.8z M615.1,637H596v-70.1h19.1V637z"/>
	<path class="st1" d="M622.6,566.9h20.9l13.2,39.4c1.1,3.4,1.9,7.5,2.3,12.2h0.4c0.5-4.3,1.4-8.4,2.7-12.2l13-39.4h20.5L666,646
		c-2.7,7.3-6.6,12.8-11.6,16.4c-5,3.6-10.9,5.5-17.7,5.5c-3.3,0-6.5-0.4-9.7-1.1v-15.2c2.3,0.5,4.8,0.8,7.5,0.8c3.4,0,6.3-1,8.9-3.1
		c2.5-2.1,4.5-5.2,5.9-9.4l1.1-3.4L622.6,566.9z"/>
	<path class="st1" d="M747.6,637l-3.7-9.5h-0.5c-3.2,4.1-6.5,6.9-9.9,8.4c-3.4,1.6-7.9,2.4-13.3,2.4c-6.7,0-12-1.9-15.9-5.8
		c-3.9-3.8-5.8-9.3-5.8-16.4c0-7.4,2.6-12.9,7.8-16.5c5.2-3.5,13.1-5.5,23.5-5.9l12.2-0.4v-3.1c0-7.1-3.6-10.7-10.9-10.7
		c-5.6,0-12.2,1.7-19.8,5.1l-6.3-12.9c8.1-4.2,17-6.3,26.8-6.3c9.4,0,16.6,2,21.6,6.1c5,4.1,7.5,10.3,7.5,18.7V637L747.6,637
		L747.6,637L747.6,637z M742,604.5l-7.4,0.3c-5.6,0.2-9.7,1.2-12.4,3c-2.7,1.8-4.1,4.6-4.1,8.4c0,5.4,3.1,8.1,9.3,8.1
		c4.4,0,8-1.3,10.6-3.8c2.7-2.5,4-5.9,4-10.2L742,604.5L742,604.5z"/>
</g>
</svg>
