<?xml version="1.0" encoding="utf-8"?>
<!-- Generator: Adobe Illustrator 16.0.0, SVG Export Plug-In . SVG Version: 6.00 Build 0)  -->
<!DOCTYPE svg PUBLIC "-//W3C//DTD SVG 1.1//EN" "http://www.w3.org/Graphics/SVG/1.1/DTD/svg11.dtd">
<svg version="1.1" id="Layer_1" xmlns="http://www.w3.org/2000/svg" xmlns:xlink="http://www.w3.org/1999/xlink" x="0px" y="0px"
	 width="1000px" height="1000px" viewBox="0 0 1000 1000" enable-background="new 0 0 1000 1000" xml:space="preserve">
<rect x="-4.23" y="-10.231" fill="#171617" width="1011.102" height="1020.102"/>
<g>
	<path fill="#FFFFFF" d="M1444.062,578.456h33.623l-53.389,157.052h-36.309l-53.281-157.052h33.623l29.541,93.457
		c1.646,5.517,3.347,11.942,5.104,19.282c1.754,7.342,2.847,12.444,3.275,15.309c0.787-6.589,3.473-18.117,8.057-34.591
		L1444.062,578.456z"/>
	<path fill="#FFFFFF" d="M1489.078,584.364c0-10.67,5.943-16.006,17.832-16.006c11.887,0,17.832,5.336,17.832,16.006
		c0,5.086-1.488,9.042-4.459,11.87c-2.973,2.83-7.43,4.243-13.373,4.243C1495.021,600.478,1489.078,595.106,1489.078,584.364z
		 M1523.238,735.508h-32.765V615.409h32.765V735.508z"/>
	<path fill="#FFFFFF" d="M1581.787,735.508l-45.762-120.099h34.268l23.203,68.429c2.363,7.448,3.902,15.647,4.619,24.6h0.858
		c0.431-8.092,2.041-16.291,4.834-24.6l23.096-68.429h34.268l-45.761,120.099H1581.787z"/>
	<path fill="#FFFFFF" d="M1728.312,737.655c-19.336,0-34.446-5.334-45.332-16.006c-10.887-10.67-16.327-25.781-16.327-45.332
		c0-20.123,5.03-35.681,15.094-46.675c10.061-10.992,23.971-16.489,41.731-16.489c16.974,0,30.187,4.834,39.64,14.502
		s14.18,23.025,14.18,40.068v15.897h-77.451c0.357,9.312,3.115,16.58,8.271,21.808c5.156,5.229,12.389,7.842,21.699,7.842
		c7.231,0,14.071-0.752,20.518-2.256s13.176-3.902,20.195-7.197v25.353c-5.73,2.864-11.854,4.994-18.369,6.392
		C1745.645,736.957,1737.694,737.655,1728.312,737.655z M1723.694,636.465c-6.947,0-12.392,2.201-16.328,6.605
		c-3.939,4.404-6.195,10.653-6.769,18.745h45.978c-0.146-8.092-2.256-14.341-6.338-18.745S1730.64,636.465,1723.694,636.465z"/>
	<path fill="#FFFFFF" d="M1831.015,670.194l14.287-18.262l33.623-36.523h36.953l-47.694,52.101l50.596,67.998h-37.812l-34.59-48.662
		l-14.072,11.278v37.384h-32.764V568.358h32.764v74.551l-1.719,27.285H1831.015z"/>
	<path fill="#FFFFFF" d="M1280.775,818.456h33.623l-53.39,157.052H1224.7l-53.281-157.052h33.623l29.541,93.457
		c1.646,5.517,3.349,11.943,5.104,19.283c1.754,7.342,2.846,12.443,3.274,15.308c0.787-6.589,3.474-18.117,8.058-34.591
		L1280.775,818.456z"/>
	<path fill="#FFFFFF" d="M1401.308,975.508l-6.338-16.328h-0.858c-5.517,6.947-11.19,11.764-17.026,14.449
		c-5.838,2.686-13.446,4.026-22.827,4.026c-11.531,0-20.607-3.293-27.23-9.883c-6.625-6.588-9.938-15.969-9.938-28.146
		c0-12.745,4.458-22.145,13.374-28.196s22.36-9.4,40.337-10.045l20.84-0.646v-5.264c0-12.174-6.229-18.262-18.69-18.262
		c-9.599,0-20.877,2.899-33.838,8.7l-10.851-22.129c13.82-7.231,29.146-10.85,45.978-10.85c16.112,0,28.467,3.51,37.061,10.526
		c8.595,7.021,12.892,17.689,12.892,32.013v80.028h-22.884V975.508z M1391.64,919.862l-12.676,0.431
		c-9.524,0.286-16.615,2.006-21.27,5.155c-4.656,3.152-6.982,7.949-6.982,14.396c0,9.237,5.299,13.856,15.897,13.856
		c7.591,0,13.659-2.184,18.209-6.553c4.547-4.367,6.82-10.168,6.82-17.402L1391.64,919.862L1391.64,919.862z"/>
	<path fill="#FFFFFF" d="M1491.547,977.655c-14.109,0-25.191-5.479-33.248-16.436s-12.084-26.14-12.084-45.547
		c0-19.693,4.098-35.035,12.299-46.029c8.199-10.992,19.498-16.49,33.894-16.49c15.108,0,26.641,5.873,34.59,17.617h1.073
		c-1.647-8.951-2.471-16.936-2.471-23.955v-38.457h32.871v167.148h-25.137l-6.338-15.576h-1.396
		C1518.15,971.747,1506.801,977.655,1491.547,977.655z M1503.041,951.552c8.379,0,14.518-2.435,18.422-7.306
		c3.902-4.868,6.033-13.141,6.393-24.813v-3.545c0-12.892-1.987-22.129-5.963-27.715c-3.975-5.586-10.438-8.379-19.389-8.379
		c-7.305,0-12.982,3.1-17.027,9.293c-4.047,6.194-6.067,15.198-6.067,27.016s2.041,20.68,6.123,26.588
		S1495.449,951.552,1503.041,951.552z"/>
	<path fill="#FFFFFF" d="M1697.479,915.243c0,19.552-5.156,34.843-15.47,45.869c-10.312,11.029-24.672,16.543-43.076,16.543
		c-11.53,0-21.697-2.522-30.507-7.571c-8.809-5.05-15.576-12.302-20.303-21.755c-4.727-9.452-7.09-20.479-7.09-33.086
		c0-19.621,5.119-34.875,15.361-45.762c10.239-10.885,24.635-16.328,43.183-16.328c11.529,0,21.699,2.508,30.508,7.521
		c8.81,5.014,15.576,12.211,20.303,21.592C1695.114,891.647,1697.479,902.64,1697.479,915.243z M1614.441,915.243
		c0,11.89,1.949,20.877,5.854,26.963c3.902,6.089,10.258,9.132,19.066,9.132c8.735,0,15.021-3.023,18.854-9.076
		c3.83-6.051,5.746-15.058,5.746-27.019c0-11.887-1.934-20.803-5.801-26.748c-3.867-5.942-10.205-8.916-19.014-8.916
		c-8.738,0-15.039,2.955-18.905,8.863C1616.375,894.351,1614.441,903.284,1614.441,915.243z"/>
	<path fill="#FFFFFF" d="M1752.913,975.508h-32.765V808.358h32.765V975.508z"/>
	<path fill="#FFFFFF" d="M1781.491,824.364c0-10.67,5.942-16.006,17.832-16.006c11.887,0,17.832,5.336,17.832,16.006
		c0,5.086-1.488,9.043-4.459,11.871c-2.974,2.83-7.431,4.242-13.373,4.242C1787.436,840.478,1781.491,835.106,1781.491,824.364z
		 M1815.651,975.508h-32.765V855.409h32.765V975.508z"/>
	<path fill="#FFFFFF" d="M1828.438,855.409h35.879l22.666,67.568c1.935,5.873,3.259,12.82,3.976,20.84h0.646
		c0.787-7.375,2.326-14.322,4.619-20.84l22.235-67.568h35.127l-50.812,135.459c-4.655,12.531-11.299,21.914-19.928,28.146
		c-8.631,6.229-18.709,9.346-30.238,9.346c-5.657,0-11.209-0.609-16.649-1.826v-25.996c3.938,0.931,8.233,1.396,12.891,1.396
		c5.802,0,10.865-1.771,15.199-5.316c4.332-3.545,7.717-8.899,10.151-16.061l1.935-5.908L1828.438,855.409z"/>
	<path fill="#FFFFFF" d="M2042.643,975.508l-6.339-16.328h-0.858c-5.517,6.947-11.189,11.764-17.025,14.449
		c-5.838,2.686-13.447,4.026-22.828,4.026c-11.531,0-20.607-3.293-27.23-9.883c-6.625-6.588-9.938-15.969-9.938-28.146
		c0-12.745,4.459-22.145,13.375-28.196s22.359-9.4,40.336-10.045l20.84-0.646v-5.264c0-12.174-6.229-18.262-18.69-18.262
		c-9.599,0-20.877,2.899-33.839,8.7l-10.85-22.129c13.82-7.231,29.146-10.85,45.978-10.85c16.112,0,28.467,3.51,37.061,10.526
		c8.595,7.021,12.892,17.689,12.892,32.013v80.028h-22.883V975.508z M2032.975,919.862l-12.677,0.431
		c-9.524,0.286-16.614,2.006-21.271,5.155c-4.655,3.152-6.981,7.949-6.981,14.396c0,9.237,5.299,13.856,15.897,13.856
		c7.59,0,13.66-2.184,18.209-6.553c4.547-4.367,6.82-10.168,6.82-17.402v-9.883H2032.975z"/>
</g>
<rect x="1232.67" y="2.479" fill="none" width="959.712" height="696.824"/>
<text transform="matrix(1 0 0 1 1411.6914 169.6775)" font-family="'NotoSans-Bold'" font-size="220">Vivek </text>
<text transform="matrix(1 0 0 1 1240.7285 409.6775)" font-family="'NotoSans-Bold'" font-size="220">Vadoliya</text>
<g>
	<path fill="#FFFFFF" d="M375.171,444.827c-3.787,2.142-7.63,3.719-11.527,4.733c-3.898,1.018-8.427,1.524-13.586,1.524
		c-10.485,0-18.883-2.688-25.195-8.068c-6.312-5.379-9.469-12.845-9.469-22.396c0-9.331,3.294-16.769,9.881-22.313
		c6.587-5.543,15.397-8.316,26.429-8.316c8.069,0,14.189,0.468,18.361,1.399l-1.729,18.773c-3.349-0.878-7.604-1.318-12.762-1.318
		c-5.928,0-10.321,1.044-13.174,3.129c-2.855,2.088-4.282,4.997-4.282,8.729c0,3.898,1.194,6.833,3.582,8.81
		c2.387,1.976,5.832,2.964,10.333,2.964c8.836,0,16.549-3.485,23.137-10.457v-42.321h-65.952v-18.606h104.485v18.607h-15.891v86.288
		h-22.642V444.827z"/>
	<path fill="#FFFFFF" d="M459.981,361.092v18.607H444.09v86.288h-22.642v-86.288h-13.503v-18.607h12.68
		c-3.076-6.202-4.612-11.884-4.612-17.044c0-9.11,3.677-16.262,11.034-21.449c7.355-5.188,17.646-7.779,30.875-7.779
		c15.423,0,30.066,3.828,43.928,11.484c13.86,7.657,27.485,19.666,40.879,36.023h-25.771c-8.675-9.551-17.677-16.728-27.008-21.532
		c-9.332-4.803-18.965-7.203-28.899-7.203c-7.192,0-12.709,1.291-16.55,3.87c-3.843,2.581-5.764,6.23-5.764,10.951
		c0,4.392,1.153,8.618,3.458,12.679H459.981L459.981,361.092z"/>
	<path fill="#FFFFFF" d="M520.172,444.827c-3.788,2.142-7.631,3.719-11.527,4.733c-3.898,1.018-8.427,1.524-13.586,1.524
		c-10.485,0-18.883-2.688-25.194-8.068c-6.313-5.379-9.47-12.845-9.47-22.396c0-9.331,3.294-16.769,9.881-22.313
		c6.588-5.543,15.397-8.316,26.43-8.316c8.07,0,14.189,0.468,18.362,1.399l-1.729,18.773c-3.349-0.878-7.603-1.318-12.764-1.318
		c-5.928,0-10.32,1.044-13.173,3.129c-2.856,2.088-4.282,4.997-4.282,8.729c0,3.898,1.196,6.833,3.583,8.81
		c2.388,1.976,5.83,2.964,10.331,2.964c8.838,0,16.551-3.485,23.138-10.457v-42.321H454.22v-18.606h104.484v18.607h-15.89v86.288
		h-22.643V444.827L520.172,444.827z"/>
	<path fill="#FFFFFF" d="M518.034,362.327c-3.239-11.034-6.325-18.54-9.263-22.521c-2.935-3.978-6.984-5.968-12.146-5.968
		c-3.676,0-7.519,0.742-11.527,2.223l-6.01-17.867c5.875-2.25,11.774-3.376,17.704-3.376c5.434,0,9.935,0.673,13.502,2.017
		c3.569,1.347,6.974,3.651,10.21,6.917c3.24,3.267,6.34,8.151,9.304,14.654c2.966,6.505,5.737,14.48,8.317,23.921L518.034,362.327
		L518.034,362.327z"/>
	<path fill="#FFFFFF" d="M613.878,444.499c-4.282,2.47-8.316,4.185-12.103,5.145c-3.788,0.961-7.878,1.441-12.269,1.441
		c-9.991,0-18.115-2.717-24.372-8.151c-6.258-5.435-9.386-12.871-9.386-22.312c0-9.166,3.293-16.563,9.88-22.19
		c6.587-5.626,15.26-8.439,26.019-8.439c7.41,0,13.117,0.468,17.126,1.399l-1.729,18.773c-3.075-0.878-7.081-1.318-12.022-1.318
		c-5.269,0-9.345,1.044-12.227,3.129c-2.882,2.088-4.322,4.997-4.322,8.729c0,3.843,1.206,6.765,3.623,8.768
		c2.415,2.004,5.653,3.006,9.716,3.006c7.904,0,15.26-3.54,22.066-10.62v-42.157h-64.305v-18.607H690.78v18.607h-54.259v23.466
		c5.322-3.183,11.445-4.775,18.36-4.775c8.179,0,14.778,2.51,19.803,7.533c5.021,5.022,7.534,11.816,7.534,20.379
		c0,5.545-1.031,11.363-3.089,17.455c-2.058,6.093-4.954,11.967-8.686,17.62l-19.679-10.868c5.927-8.179,8.893-15.616,8.893-22.313
		c0-7.465-3.129-11.197-9.386-11.197c-4.393,0-8.976,2.415-13.75,7.244v41.746H613.88v-21.489H613.878z"/>
	<path fill="#FFFFFF" d="M278.421,628.782c-4.008,2.196-8.11,3.787-12.31,4.775c-4.199,0.987-9.291,1.482-15.273,1.482
		c-10.265,0-18.608-2.73-25.03-8.192c-6.422-5.462-9.633-12.885-9.633-22.271c0-9.167,3.347-16.563,10.045-22.19
		c6.695-5.626,15.45-8.439,26.265-8.439c9.276,0,16.22,0.44,20.832,1.317l-1.729,18.032c-3.678-0.879-8.289-1.318-13.832-1.318
		h-1.07c-0.385,0-0.77,0.027-1.153,0.082l15.727,19.597c2.141-1.428,4.528-3.431,7.164-6.011v-41.992H210v-18.606h106.955v18.607
		h-15.891v86.288h-22.643L278.421,628.782L278.421,628.782z M259.978,616.679l-17.126-21.408c-1.538,0.988-2.69,2.265-3.458,3.828
		c-0.77,1.564-1.153,3.417-1.153,5.558c0,4.228,1.289,7.384,3.87,9.469c2.579,2.088,6.449,3.13,11.609,3.13
		C256.19,617.256,258.275,617.063,259.978,616.679z"/>
	<path fill="#FFFFFF" d="M371.136,618.49c-7.137-2.086-13.065-5.503-17.785-10.25c-4.721-4.747-7.08-9.785-7.08-15.109
		c0-3.513,0.726-6.56,2.181-9.141c1.454-2.578,3.459-4.692,6.011-6.339c2.552-1.647,5.571-2.812,9.057-3.499
		c3.485-0.686,8.138-1.029,13.957-1.029h12.186v-9.469h-78.467v-18.607h118.482v18.607h-17.374v26.101h-34.334
		c-2.855,0-4.831,0.123-5.928,0.37c-1.099,0.246-1.992,0.699-2.677,1.358c-0.687,0.659-1.028,1.538-1.028,2.635
		c0,2.581,1.674,4.805,5.022,6.669c4.72-1.481,10.346-2.222,16.878-2.222c9.332,0,16.809,2.318,22.435,6.958
		c5.627,4.638,8.441,10.825,8.441,18.565c0,7.851-3.293,14.121-9.88,18.814c-6.587,4.692-15.92,7.04-27.994,7.04
		c-13.503,0-25.813-2.909-36.929-8.728c-11.116-5.817-21.531-14.519-31.246-26.103l17.455-12.678
		c7.958,9.935,15.821,17.181,23.589,21.735c7.766,4.557,15.986,6.833,24.66,6.833c11.746,0,17.62-2.853,17.62-8.562
		c0-4.72-3.98-7.08-11.939-7.08C381.893,615.361,376.789,616.404,371.136,618.49z"/>
	<path fill="#FFFFFF" d="M376.244,659.986c3.458,0,6.38,1.194,8.769,3.582c2.387,2.389,3.582,5.394,3.582,9.017
		s-1.194,6.628-3.582,9.016c-2.388,2.389-5.312,3.582-8.769,3.582c-3.458,0-6.381-1.194-8.769-3.582
		c-2.388-2.388-3.582-5.393-3.582-9.016s1.194-6.627,3.582-9.017C369.862,661.18,372.785,659.986,376.244,659.986z"/>
	<path fill="#FFFFFF" d="M435.281,546.281c-3.24-11.033-6.328-18.539-9.263-22.519c-2.938-3.979-6.983-5.97-12.145-5.97
		c-3.677,0-7.52,0.741-11.527,2.222l-6.01-17.866c5.874-2.251,11.774-3.376,17.702-3.376c5.435,0,9.934,0.673,13.503,2.018
		c3.567,1.345,6.971,3.651,10.21,6.915c3.238,3.268,6.339,8.152,9.304,14.656s5.735,14.479,8.317,23.919L435.281,546.281
		L435.281,546.281z M472.579,563.654h-15.89v86.288h-22.643v-86.288h-13.503v-18.607h52.037L472.579,563.654L472.579,563.654z"/>
	<path fill="#FFFFFF" d="M555.25,596.589c-4.557,0.274-8.469,2.237-11.733,5.887c-3.268,3.652-5.86,8.962-7.78,15.933l-20.995-6.423
		c1.04-3.896,2.249-7.299,3.622-10.21c-3.842-3.128-7.768-4.692-11.773-4.692c-3.294,0-5.943,0.907-7.947,2.718
		c-2.005,1.811-3.005,4.199-3.005,7.163c0,4.446,1.894,8.811,5.682,13.091c3.788,4.282,10.594,10.183,20.421,17.703l-14.574,14.984
		c-12.241-9.715-20.996-18.126-26.266-25.235c-5.27-7.107-7.904-14.505-7.904-22.19c0-8.616,2.729-15.299,8.192-20.047
		c5.461-4.748,12.393-7.124,20.79-7.124c5.435,0,10.305,0.674,14.613,2.019c4.31,1.346,8.634,3.527,12.969,6.545
		c3.348-2.799,7.136-4.91,11.363-6.339c4.227-1.427,8.863-2.141,13.914-2.141h0.412v-14.574h-88.43v-18.608h126.881v18.607H577.81
		v86.288h-22.56V596.589z"/>
	<path fill="#FFFFFF" d="M639.978,545.047v18.607h-15.892v86.288h-22.643v-86.288h-13.502v-18.607h12.68
		c-3.076-6.203-4.611-11.884-4.611-17.045c0-9.11,3.677-16.26,11.033-21.447c7.355-5.188,17.646-7.781,30.877-7.781
		c15.423,0,30.064,3.829,43.926,11.486c13.859,7.656,27.486,19.666,40.88,36.022h-25.771c-8.673-9.551-17.675-16.728-27.005-21.531
		c-9.333-4.803-18.967-7.204-28.899-7.204c-7.193,0-12.709,1.289-16.551,3.869c-3.843,2.581-5.764,6.23-5.764,10.951
		c0,4.393,1.152,8.618,3.458,12.68H639.978L639.978,545.047z"/>
	<path fill="#FFFFFF" d="M705.273,625.158c-3.569,2.307-7.521,4.036-11.857,5.189c-4.336,1.151-9.057,1.728-14.162,1.728
		c-10.43,0-19.146-3.499-26.143-10.497c-6.998-6.999-11.648-17.002-13.955-30.011c6.368-1.263,11.128-3.197,14.285-5.805
		c3.155-2.606,4.734-6.217,4.734-10.827c0-3.788-1.207-7.547-3.622-11.28h-20.337v-18.608h109.507v18.607h-15.892v86.288h-22.559
		V625.158L705.273,625.158z M663.364,601.363c1.811,3.844,4.144,6.822,6.998,8.934c2.854,2.114,6.477,3.171,10.869,3.171
		c4.774,0,9.166-0.989,13.174-2.964c4.007-1.977,7.628-4.967,10.869-8.975v-37.875h-28.818c2.909,4.996,4.364,10.209,4.364,15.644
		c0,5.159-1.455,9.579-4.364,13.256C673.545,596.233,669.181,599.169,663.364,601.363z"/>
	<path fill="#FFFFFF" d="M790,563.654h-15.892v86.288h-22.642v-86.288h-13.504v-18.607H790V563.654L790,563.654z"/>
</g>
</svg>
