<?xml version="1.0" encoding="utf-8"?>
<!-- Generator: Adobe Illustrator 16.0.0, SVG Export Plug-In . SVG Version: 6.00 Build 0)  -->
<!DOCTYPE svg PUBLIC "-//W3C//DTD SVG 1.1//EN" "http://www.w3.org/Graphics/SVG/1.1/DTD/svg11.dtd">
<svg version="1.1" id="Layer_1" xmlns="http://www.w3.org/2000/svg" xmlns:xlink="http://www.w3.org/1999/xlink" x="0px" y="0px"
	 width="1000px" height="1000px" viewBox="0 0 1000 1000" enable-background="new 0 0 1000 1000" xml:space="preserve">
<rect x="-4.23" y="-10.231" fill="#D48B8F" width="1011.102" height="1020.102"/>
<g>
	<path fill="#FFFFFF" d="M1444.063,578.456h33.623l-53.389,157.051h-36.309l-53.281-157.051h33.623l29.541,93.457
		c1.646,5.516,3.347,11.942,5.103,19.282c1.754,7.342,2.847,12.444,3.276,15.308c0.787-6.588,3.473-18.117,8.057-34.59
		L1444.063,578.456z"/>
	<path fill="#FFFFFF" d="M1489.078,584.364c0-10.67,5.943-16.006,17.832-16.006c11.887,0,17.832,5.336,17.832,16.006
		c0,5.086-1.488,9.042-4.459,11.87c-2.973,2.83-7.43,4.243-13.373,4.243C1495.021,600.478,1489.078,595.106,1489.078,584.364z
		 M1523.238,735.507h-32.764V615.409h32.764V735.507z"/>
	<path fill="#FFFFFF" d="M1581.787,735.507l-45.762-120.098h34.268l23.203,68.428c2.363,7.449,3.902,15.648,4.619,24.6h0.859
		c0.43-8.092,2.041-16.291,4.834-24.6l23.095-68.428h34.268l-45.761,120.098H1581.787z"/>
	<path fill="#FFFFFF" d="M1728.313,737.655c-19.336,0-34.447-5.334-45.332-16.006c-10.887-10.67-16.328-25.781-16.328-45.332
		c0-20.123,5.031-35.681,15.094-46.675c10.061-10.992,23.971-16.489,41.732-16.489c16.973,0,30.186,4.834,39.639,14.502
		s14.18,23.025,14.18,40.068v15.898h-77.451c0.357,9.311,3.115,16.58,8.271,21.807c5.156,5.229,12.389,7.842,21.699,7.842
		c7.232,0,14.072-0.752,20.518-2.256s13.176-3.902,20.195-7.197v25.352c-5.73,2.865-11.854,4.995-18.369,6.392
		C1745.644,736.957,1737.694,737.655,1728.313,737.655z M1723.694,636.464c-6.947,0-12.391,2.202-16.328,6.606
		c-3.939,4.404-6.195,10.653-6.768,18.745h45.977c-0.145-8.092-2.256-14.341-6.338-18.745S1730.64,636.464,1723.694,636.464z"/>
	<path fill="#FFFFFF" d="M1831.015,670.194l14.287-18.262l33.623-36.523h36.953l-47.695,52.1l50.596,67.998h-37.812l-34.59-48.662
		l-14.072,11.279v37.383h-32.764V568.358h32.764v74.551l-1.719,27.285H1831.015z"/>
	<path fill="#FFFFFF" d="M1280.775,818.456h33.623l-53.389,157.051h-36.309l-53.281-157.051h33.623l29.541,93.457
		c1.646,5.516,3.348,11.943,5.104,19.283c1.754,7.342,2.846,12.443,3.275,15.307c0.787-6.588,3.473-18.117,8.057-34.59
		L1280.775,818.456z"/>
	<path fill="#FFFFFF" d="M1401.308,975.507l-6.338-16.328h-0.859c-5.516,6.947-11.19,11.764-17.026,14.449
		c-5.838,2.686-13.446,4.027-22.827,4.027c-11.531,0-20.608-3.293-27.231-9.883c-6.625-6.588-9.937-15.969-9.937-28.145
		c0-12.746,4.458-22.145,13.374-28.197c8.916-6.051,22.36-9.4,40.337-10.045l20.84-0.645v-5.264c0-12.174-6.23-18.262-18.691-18.262
		c-9.598,0-20.877,2.9-33.838,8.701l-10.85-22.129c13.82-7.232,29.146-10.85,45.977-10.85c16.113,0,28.467,3.51,37.061,10.527
		c8.594,7.02,12.891,17.689,12.891,32.012v80.029H1401.308z M1391.64,919.862l-12.676,0.43c-9.525,0.287-16.615,2.006-21.27,5.156
		c-4.656,3.152-6.982,7.949-6.982,14.395c0,9.238,5.299,13.857,15.898,13.857c7.59,0,13.659-2.184,18.208-6.553
		c4.547-4.367,6.821-10.168,6.821-17.402V919.862z"/>
	<path fill="#FFFFFF" d="M1491.547,977.655c-14.109,0-25.191-5.479-33.248-16.436s-12.084-26.139-12.084-45.547
		c0-19.693,4.098-35.035,12.299-46.029c8.199-10.992,19.498-16.49,33.893-16.49c15.109,0,26.641,5.873,34.59,17.617h1.074
		c-1.648-8.951-2.471-16.936-2.471-23.955v-38.457h32.871v167.148h-25.137l-6.338-15.576h-1.396
		C1518.15,971.747,1506.801,977.655,1491.547,977.655z M1503.041,951.552c8.379,0,14.518-2.434,18.422-7.305
		c3.902-4.869,6.033-13.141,6.393-24.814v-3.545c0-12.891-1.988-22.129-5.963-27.715s-10.438-8.379-19.389-8.379
		c-7.305,0-12.982,3.1-17.027,9.293c-4.047,6.195-6.068,15.199-6.068,27.016s2.041,20.68,6.123,26.588
		S1495.449,951.552,1503.041,951.552z"/>
	<path fill="#FFFFFF" d="M1697.478,915.243c0,19.551-5.156,34.842-15.469,45.869c-10.312,11.029-24.672,16.543-43.076,16.543
		c-11.531,0-21.698-2.523-30.507-7.572s-15.576-12.301-20.303-21.754s-7.09-20.48-7.09-33.086c0-19.621,5.119-34.875,15.361-45.762
		c10.24-10.885,24.635-16.328,43.183-16.328c11.529,0,21.699,2.508,30.508,7.52c8.809,5.014,15.576,12.211,20.303,21.592
		C1695.114,891.647,1697.478,902.64,1697.478,915.243z M1614.441,915.243c0,11.889,1.95,20.877,5.854,26.963
		c3.902,6.088,10.258,9.131,19.066,9.131c8.736,0,15.021-3.023,18.854-9.076c3.83-6.051,5.746-15.057,5.746-27.018
		c0-11.887-1.934-20.803-5.801-26.748c-3.867-5.943-10.205-8.916-19.014-8.916c-8.738,0-15.039,2.955-18.905,8.863
		C1616.375,894.351,1614.441,903.284,1614.441,915.243z"/>
	<path fill="#FFFFFF" d="M1752.913,975.507h-32.764V808.358h32.764V975.507z"/>
	<path fill="#FFFFFF" d="M1781.491,824.364c0-10.67,5.943-16.006,17.832-16.006c11.887,0,17.832,5.336,17.832,16.006
		c0,5.086-1.488,9.043-4.459,11.871c-2.973,2.83-7.43,4.242-13.373,4.242C1787.435,840.478,1781.491,835.106,1781.491,824.364z
		 M1815.651,975.507h-32.764V855.409h32.764V975.507z"/>
	<path fill="#FFFFFF" d="M1828.438,855.409h35.879l22.666,67.568c1.934,5.873,3.258,12.82,3.975,20.84h0.645
		c0.787-7.375,2.326-14.322,4.619-20.84l22.236-67.568h35.127l-50.811,135.459c-4.656,12.531-11.299,21.914-19.928,28.145
		c-8.631,6.23-18.709,9.346-30.238,9.346c-5.658,0-11.209-0.609-16.65-1.826v-25.996c3.938,0.93,8.234,1.396,12.891,1.396
		c5.801,0,10.865-1.771,15.199-5.316c4.332-3.545,7.717-8.9,10.152-16.061l1.934-5.908L1828.438,855.409z"/>
	<path fill="#FFFFFF" d="M2042.642,975.507l-6.338-16.328h-0.859c-5.516,6.947-11.189,11.764-17.025,14.449
		c-5.838,2.686-13.447,4.027-22.828,4.027c-11.531,0-20.607-3.293-27.23-9.883c-6.625-6.588-9.938-15.969-9.938-28.145
		c0-12.746,4.459-22.145,13.375-28.197c8.916-6.051,22.359-9.4,40.336-10.045l20.84-0.645v-5.264
		c0-12.174-6.23-18.262-18.691-18.262c-9.598,0-20.877,2.9-33.838,8.701l-10.85-22.129c13.82-7.232,29.146-10.85,45.977-10.85
		c16.113,0,28.467,3.51,37.061,10.527c8.594,7.02,12.891,17.689,12.891,32.012v80.029H2042.642z M2032.974,919.862l-12.676,0.43
		c-9.525,0.287-16.615,2.006-21.27,5.156c-4.656,3.152-6.982,7.949-6.982,14.395c0,9.238,5.299,13.857,15.898,13.857
		c7.59,0,13.66-2.184,18.209-6.553c4.547-4.367,6.82-10.168,6.82-17.402V919.862z"/>
</g>
<rect x="1232.67" y="2.479" fill="none" width="959.712" height="696.824"/>
<text transform="matrix(1 0 0 1 1411.6914 169.6772)"><tspan x="0" y="0" font-family="'NotoSans-Bold'" font-size="220">Vivek </tspan><tspan x="-170.963" y="240" font-family="'NotoSans-Bold'" font-size="220">Vadoliya</tspan></text>
<g>
	<path fill="#FFFFFF" d="M337.14,428.018c-4.941,2.793-9.955,4.852-15.039,6.176c-5.086,1.326-10.994,1.988-17.725,1.988
		c-13.68,0-24.637-3.508-32.871-10.527c-8.236-7.018-12.354-16.758-12.354-29.219c0-12.174,4.297-21.877,12.891-29.111
		c8.594-7.232,20.088-10.85,34.482-10.85c10.527,0,18.512,0.609,23.955,1.826l-2.256,24.492c-4.369-1.145-9.92-1.719-16.65-1.719
		c-7.734,0-13.465,1.361-17.188,4.082c-3.725,2.723-5.586,6.518-5.586,11.387c0,5.086,1.557,8.916,4.672,11.494
		s7.609,3.867,13.482,3.867c11.529,0,21.592-4.547,30.186-13.643v-55.215h-86.045V318.77h136.318v24.277h-20.732v112.578H337.14
		V428.018z"/>
	<path fill="#FFFFFF" d="M447.789,318.77v24.277h-20.732v112.578h-29.541V343.047h-17.617V318.77h16.543
		c-4.012-8.092-6.016-15.504-6.016-22.236c0-11.887,4.797-21.217,14.395-27.984c9.596-6.768,23.023-10.15,40.283-10.15
		c20.123,0,39.227,4.994,57.311,14.984c18.082,9.99,35.859,25.658,53.334,46.998h-33.623
		c-11.316-12.461-23.061-21.824-35.235-28.092c-12.176-6.266-24.744-9.398-37.705-9.398c-9.383,0-16.58,1.684-21.592,5.049
		c-5.014,3.367-7.52,8.129-7.52,14.287c0,5.73,1.504,11.244,4.512,16.543H447.789z"/>
	<path fill="#FFFFFF" d="M526.318,428.018c-4.941,2.793-9.955,4.852-15.039,6.176c-5.086,1.326-10.995,1.988-17.725,1.988
		c-13.68,0-24.637-3.508-32.871-10.527c-8.236-7.018-12.354-16.758-12.354-29.219c0-12.174,4.297-21.877,12.891-29.111
		c8.594-7.232,20.088-10.85,34.482-10.85c10.528,0,18.512,0.609,23.956,1.826l-2.256,24.492c-4.369-1.145-9.92-1.719-16.651-1.719
		c-7.734,0-13.465,1.361-17.188,4.082c-3.725,2.723-5.586,6.518-5.586,11.387c0,5.086,1.559,8.916,4.674,11.494
		s7.607,3.867,13.48,3.867c11.53,0,21.592-4.547,30.186-13.643v-55.215h-86.045V318.77h136.319v24.277h-20.732v112.578h-29.541
		V428.018z"/>
	<path fill="#FFFFFF" d="M523.529,320.381c-4.225-14.395-8.252-24.188-12.084-29.381c-3.83-5.191-9.113-7.787-15.846-7.787
		c-4.797,0-9.811,0.967-15.039,2.9l-7.842-23.311c7.664-2.936,15.361-4.404,23.096-4.404c7.09,0,12.963,0.877,17.618,2.631
		c4.656,1.756,9.096,4.764,13.32,9.023c4.227,4.262,8.271,10.635,12.139,19.121s7.484,18.891,10.85,31.207H523.529z"/>
	<path fill="#FFFFFF" d="M648.574,427.588c-5.586,3.223-10.85,5.461-15.791,6.713c-4.941,1.254-10.277,1.881-16.006,1.881
		c-13.035,0-23.633-3.545-31.797-10.635s-12.246-16.793-12.246-29.111c0-11.959,4.297-21.609,12.891-28.951
		c8.594-7.34,19.908-11.01,33.945-11.01c9.668,0,17.115,0.609,22.344,1.826l-2.256,24.492c-4.012-1.145-9.238-1.719-15.684-1.719
		c-6.875,0-12.193,1.361-15.953,4.082c-3.76,2.723-5.639,6.518-5.639,11.387c0,5.014,1.574,8.826,4.727,11.439
		c3.15,2.615,7.375,3.922,12.676,3.922c10.312,0,19.908-4.619,28.789-13.857v-55h-83.896V318.77h184.229v24.277h-70.791v30.615
		c6.945-4.152,14.932-6.23,23.955-6.23c10.67,0,19.281,3.275,25.834,9.828s9.83,15.416,9.83,26.588
		c0,7.234-1.344,14.824-4.029,22.773s-6.463,15.613-11.332,22.988l-25.674-14.18c7.734-10.67,11.602-20.373,11.602-29.111
		c0-9.738-4.082-14.609-12.246-14.609c-5.73,0-11.709,3.152-17.939,9.453v54.463h-29.541V427.588z"/>
	<path fill="#FFFFFF" d="M210.913,668.018c-5.229,2.865-10.581,4.941-16.06,6.23s-12.122,1.934-19.927,1.934
		c-13.393,0-24.277-3.562-32.656-10.688c-8.379-7.125-12.568-16.812-12.568-29.058c0-11.959,4.367-21.608,13.105-28.95
		c8.736-7.34,20.158-11.011,34.268-11.011c12.102,0,21.162,0.574,27.178,1.719l-2.256,23.525
		c-4.799-1.145-10.814-1.719-18.047-1.719h-1.396c-0.502,0-1.004,0.037-1.504,0.107l20.518,25.566
		c2.793-1.861,5.908-4.475,9.346-7.842v-54.785h-89.268V558.77h139.541v24.277h-20.732v112.578h-29.541V668.018z M186.85,652.227
		l-22.344-27.93c-2.006,1.289-3.51,2.954-4.512,4.995c-1.004,2.041-1.504,4.458-1.504,7.251c0,5.516,1.682,9.633,5.049,12.354
		c3.365,2.723,8.414,4.082,15.146,4.082C181.909,652.979,184.629,652.729,186.85,652.227z"/>
	<path fill="#FFFFFF" d="M331.875,654.59c-9.311-2.721-17.045-7.179-23.203-13.374c-6.16-6.193-9.238-12.765-9.238-19.712
		c0-4.582,0.947-8.557,2.846-11.924c1.896-3.365,4.512-6.123,7.842-8.271s7.268-3.669,11.816-4.565
		c4.547-0.895,10.617-1.343,18.209-1.343h15.898v-12.354H253.671V558.77h154.58v24.277h-22.666V617.1h-44.795
		c-3.725,0-6.303,0.161-7.734,0.483c-1.434,0.322-2.598,0.913-3.492,1.772c-0.896,0.859-1.342,2.006-1.342,3.438
		c0,3.367,2.184,6.268,6.553,8.701c6.158-1.934,13.498-2.9,22.021-2.9c12.174,0,21.93,3.026,29.271,9.077
		c7.34,6.053,11.012,14.126,11.012,24.224c0,10.242-4.297,18.423-12.891,24.546s-20.77,9.185-36.523,9.185
		c-17.617,0-33.678-3.795-48.18-11.387c-14.502-7.59-28.09-18.941-40.766-34.053l22.773-16.543
		c10.383,12.963,20.641,22.416,30.775,28.359c10.133,5.945,20.857,8.916,32.174,8.916c15.324,0,22.988-3.723,22.988-11.172
		c0-6.158-5.193-9.238-15.576-9.238C345.91,650.508,339.25,651.869,331.875,654.59z"/>
	<path fill="#FFFFFF" d="M338.539,708.73c4.512,0,8.325,1.558,11.44,4.673s4.673,7.036,4.673,11.763s-1.558,8.647-4.673,11.763
		s-6.929,4.673-11.44,4.673s-8.325-1.558-11.44-4.673s-4.673-7.036-4.673-11.763s1.558-8.647,4.673-11.763
		S334.027,708.73,338.539,708.73z"/>
	<path fill="#FFFFFF" d="M415.564,560.381c-4.227-14.395-8.255-24.187-12.085-29.38c-3.832-5.191-9.112-7.788-15.845-7.788
		c-4.797,0-9.811,0.967-15.039,2.9l-7.842-23.311c7.664-2.936,15.361-4.404,23.096-4.404c7.09,0,12.961,0.878,17.617,2.632
		c4.654,1.756,9.094,4.764,13.32,9.023c4.225,4.262,8.271,10.635,12.139,19.121s7.482,18.89,10.85,31.206H415.564z M464.226,583.047
		h-20.732v112.578h-29.541V583.047h-17.617V558.77h67.891V583.047z"/>
	<path fill="#FFFFFF" d="M572.084,626.016c-5.945,0.359-11.049,2.919-15.309,7.681c-4.262,4.764-7.645,11.692-10.15,20.786
		l-27.393-8.379c1.359-5.084,2.936-9.523,4.727-13.32c-5.014-4.082-10.135-6.123-15.361-6.123c-4.297,0-7.754,1.182-10.368,3.545
		c-2.615,2.363-3.92,5.479-3.92,9.346c0,5.801,2.471,11.494,7.413,17.08c4.941,5.586,13.82,13.285,26.641,23.096l-19.014,19.551
		c-15.971-12.676-27.393-23.649-34.268-32.925c-6.875-9.273-10.312-18.923-10.312-28.95c0-11.242,3.561-19.962,10.688-26.157
		c7.125-6.193,16.168-9.292,27.125-9.292c7.09,0,13.443,0.878,19.066,2.632c5.621,1.756,11.262,4.603,16.92,8.54
		c4.367-3.652,9.309-6.408,14.824-8.271c5.514-1.861,11.564-2.793,18.154-2.793h0.537v-19.014H456.712V558.77H622.25v24.277h-20.732
		v112.578h-29.434V626.016z"/>
	<path fill="#FFFFFF" d="M682.625,558.77v24.277h-20.732v112.578h-29.541V583.047h-17.617V558.77h16.543
		c-4.012-8.092-6.016-15.504-6.016-22.236c0-11.887,4.797-21.216,14.395-27.983c9.596-6.768,23.023-10.151,40.283-10.151
		c20.123,0,39.225,4.995,57.309,14.985c18.082,9.99,35.861,25.657,53.336,46.997h-33.623
		c-11.316-12.461-23.061-21.823-35.234-28.091c-12.176-6.266-24.744-9.399-37.705-9.399c-9.383,0-16.58,1.684-21.592,5.049
		c-5.014,3.367-7.52,8.129-7.52,14.287c0,5.73,1.504,11.244,4.512,16.543H682.625z"/>
	<path fill="#FFFFFF" d="M767.814,663.291c-4.656,3.008-9.812,5.264-15.469,6.768c-5.658,1.504-11.816,2.256-18.477,2.256
		c-13.607,0-24.977-4.565-34.107-13.696s-15.199-22.183-18.207-39.155c8.307-1.646,14.518-4.171,18.637-7.573
		c4.117-3.4,6.178-8.11,6.178-14.126c0-4.941-1.576-9.846-4.727-14.717h-26.533V558.77H817.98v24.277h-20.732v112.578h-29.434
		V663.291z M713.137,632.246c2.363,5.014,5.406,8.899,9.131,11.655c3.723,2.758,8.449,4.136,14.18,4.136
		c6.23,0,11.959-1.289,17.188-3.867c5.227-2.578,9.953-6.48,14.18-11.709v-49.414h-37.598c3.795,6.518,5.693,13.32,5.693,20.41
		c0,6.732-1.898,12.498-5.693,17.295C726.42,625.551,720.727,629.383,713.137,632.246z"/>
	<path fill="#FFFFFF" d="M878.355,583.047h-20.732v112.578h-29.541V583.047h-17.617V558.77h67.891V583.047z"/>
</g>
</svg>
