<?xml version="1.0" encoding="utf-8"?>
<!-- Generator: Adobe Illustrator 16.0.0, SVG Export Plug-In . SVG Version: 6.00 Build 0)  -->
<!DOCTYPE svg PUBLIC "-//W3C//DTD SVG 1.1//EN" "http://www.w3.org/Graphics/SVG/1.1/DTD/svg11.dtd">
<svg version="1.1" id="Layer_1" xmlns="http://www.w3.org/2000/svg" xmlns:xlink="http://www.w3.org/1999/xlink" x="0px" y="0px"
	 width="1000px" height="1000px" viewBox="0 0 1000 1000" enable-background="new 0 0 1000 1000" xml:space="preserve">
<rect x="-4.23" y="-10.231" fill="#171617" width="1011.102" height="1020.102"/>
<g>
	<path fill="#FFFFFF" d="M325.592,280.098h33.623l-53.389,157.051h-36.309l-53.281-157.051h33.623l29.541,93.457
		c1.646,5.516,3.347,11.942,5.103,19.282c1.754,7.342,2.847,12.444,3.276,15.308c0.787-6.588,3.473-18.117,8.057-34.59
		L325.592,280.098z"/>
	<path fill="#FFFFFF" d="M370.607,286.006c0-10.67,5.943-16.006,17.832-16.006c11.887,0,17.832,5.336,17.832,16.006
		c0,5.086-1.488,9.042-4.459,11.87c-2.973,2.83-7.43,4.243-13.373,4.243C376.55,302.119,370.607,296.748,370.607,286.006z
		 M404.767,437.148h-32.764V317.051h32.764V437.148z"/>
	<path fill="#FFFFFF" d="M463.316,437.148l-45.762-120.098h34.268l23.203,68.428c2.363,7.449,3.902,15.648,4.619,24.6h0.859
		c0.43-8.092,2.041-16.291,4.834-24.6l23.094-68.428h34.268l-45.76,120.098H463.316z"/>
	<path fill="#FFFFFF" d="M609.842,439.297c-19.336,0-34.447-5.334-45.332-16.006c-10.887-10.67-16.328-25.781-16.328-45.332
		c0-20.123,5.031-35.681,15.094-46.675c10.061-10.992,23.971-16.489,41.732-16.489c16.973,0,30.186,4.834,39.639,14.502
		s14.18,23.025,14.18,40.068v15.898h-77.451c0.357,9.311,3.115,16.58,8.271,21.807c5.156,5.229,12.389,7.842,21.699,7.842
		c7.232,0,14.072-0.752,20.518-2.256s13.176-3.902,20.195-7.197v25.352c-5.73,2.865-11.854,4.995-18.369,6.392
		C627.172,438.599,619.223,439.297,609.842,439.297z M605.223,338.105c-6.947,0-12.391,2.202-16.328,6.606
		c-3.939,4.404-6.195,10.653-6.768,18.745h45.977c-0.145-8.092-2.256-14.341-6.338-18.745S612.168,338.105,605.223,338.105z"/>
	<path fill="#FFFFFF" d="M712.543,371.836l14.287-18.262l33.623-36.523h36.953l-47.695,52.1l50.596,67.998h-37.812l-34.59-48.662
		l-14.072,11.279v37.383h-32.764V270h32.764v74.551l-1.719,27.285H712.543z"/>
	<path fill="#FFFFFF" d="M162.304,520.098h33.623l-53.389,157.051H106.23L52.949,520.098h33.623l29.541,93.457
		c1.646,5.516,3.348,11.943,5.104,19.283c1.754,7.342,2.846,12.443,3.275,15.307c0.787-6.588,3.473-18.117,8.057-34.59
		L162.304,520.098z"/>
	<path fill="#FFFFFF" d="M282.836,677.148l-6.338-16.328h-0.859c-5.516,6.947-11.19,11.764-17.026,14.449
		c-5.838,2.686-13.446,4.027-22.827,4.027c-11.531,0-20.608-3.293-27.231-9.883c-6.625-6.588-9.937-15.969-9.937-28.145
		c0-12.746,4.458-22.145,13.374-28.197c8.916-6.051,22.36-9.4,40.337-10.045l20.84-0.645v-5.264c0-12.174-6.23-18.262-18.691-18.262
		c-9.598,0-20.877,2.9-33.838,8.701l-10.85-22.129c13.82-7.232,29.146-10.85,45.977-10.85c16.113,0,28.467,3.51,37.061,10.527
		c8.594,7.02,12.891,17.689,12.891,32.012v80.029H282.836z M273.168,621.504l-12.676,0.43c-9.525,0.287-16.615,2.006-21.27,5.156
		c-4.656,3.152-6.982,7.949-6.982,14.395c0,9.238,5.299,13.857,15.898,13.857c7.59,0,13.659-2.184,18.208-6.553
		c4.547-4.367,6.821-10.168,6.821-17.402V621.504z"/>
	<path fill="#FFFFFF" d="M373.076,679.297c-14.109,0-25.191-5.479-33.248-16.436s-12.084-26.139-12.084-45.547
		c0-19.693,4.098-35.035,12.299-46.029c8.199-10.992,19.498-16.49,33.893-16.49c15.109,0,26.641,5.873,34.59,17.617h1.074
		c-1.648-8.951-2.471-16.936-2.471-23.955V510H440v167.148h-25.137l-6.338-15.576h-1.396
		C399.679,673.389,388.33,679.297,373.076,679.297z M384.57,653.193c8.379,0,14.518-2.434,18.422-7.305
		c3.902-4.869,6.033-13.141,6.393-24.814v-3.545c0-12.891-1.988-22.129-5.963-27.715s-10.438-8.379-19.389-8.379
		c-7.305,0-12.982,3.1-17.027,9.293c-4.047,6.195-6.068,15.199-6.068,27.016s2.041,20.68,6.123,26.588
		S376.978,653.193,384.57,653.193z"/>
	<path fill="#FFFFFF" d="M579.006,616.885c0,19.551-5.156,34.842-15.469,45.869c-10.312,11.029-24.672,16.543-43.076,16.543
		c-11.531,0-21.698-2.523-30.506-7.572s-15.576-12.301-20.303-21.754s-7.09-20.48-7.09-33.086c0-19.621,5.119-34.875,15.361-45.762
		c10.24-10.885,24.635-16.328,43.182-16.328c11.529,0,21.699,2.508,30.508,7.52c8.809,5.014,15.576,12.211,20.303,21.592
		C576.643,593.289,579.006,604.281,579.006,616.885z M495.97,616.885c0,11.889,1.95,20.877,5.854,26.963
		c3.902,6.088,10.258,9.131,19.066,9.131c8.736,0,15.021-3.023,18.854-9.076c3.83-6.051,5.746-15.057,5.746-27.018
		c0-11.887-1.934-20.803-5.801-26.748c-3.867-5.943-10.205-8.916-19.014-8.916c-8.738,0-15.039,2.955-18.904,8.863
		C497.904,595.992,495.97,604.926,495.97,616.885z"/>
	<path fill="#FFFFFF" d="M634.441,677.148h-32.764V510h32.764V677.148z"/>
	<path fill="#FFFFFF" d="M663.02,526.006c0-10.67,5.943-16.006,17.832-16.006c11.887,0,17.832,5.336,17.832,16.006
		c0,5.086-1.488,9.043-4.459,11.871c-2.973,2.83-7.43,4.242-13.373,4.242C668.963,542.119,663.02,536.748,663.02,526.006z
		 M697.18,677.148h-32.764V557.051h32.764V677.148z"/>
	<path fill="#FFFFFF" d="M709.967,557.051h35.879l22.666,67.568c1.934,5.873,3.258,12.82,3.975,20.84h0.645
		c0.787-7.375,2.326-14.322,4.619-20.84l22.236-67.568h35.127L784.303,692.51c-4.656,12.531-11.299,21.914-19.928,28.145
		c-8.631,6.23-18.709,9.346-30.238,9.346c-5.658,0-11.209-0.609-16.65-1.826v-25.996c3.938,0.93,8.234,1.396,12.891,1.396
		c5.801,0,10.865-1.771,15.199-5.316c4.332-3.545,7.717-8.9,10.152-16.061l1.934-5.908L709.967,557.051z"/>
	<path fill="#FFFFFF" d="M924.17,677.148l-6.338-16.328h-0.859c-5.516,6.947-11.189,11.764-17.025,14.449
		c-5.838,2.686-13.447,4.027-22.828,4.027c-11.531,0-20.607-3.293-27.23-9.883c-6.625-6.588-9.938-15.969-9.938-28.145
		c0-12.746,4.459-22.145,13.375-28.197c8.916-6.051,22.359-9.4,40.336-10.045l20.84-0.645v-5.264
		c0-12.174-6.23-18.262-18.691-18.262c-9.598,0-20.877,2.9-33.838,8.701l-10.85-22.129c13.82-7.232,29.146-10.85,45.977-10.85
		c16.113,0,28.467,3.51,37.061,10.527c8.594,7.02,12.891,17.689,12.891,32.012v80.029H924.17z M914.502,621.504l-12.676,0.43
		c-9.525,0.287-16.615,2.006-21.27,5.156c-4.656,3.152-6.982,7.949-6.982,14.395c0,9.238,5.299,13.857,15.898,13.857
		c7.59,0,13.66-2.184,18.209-6.553c4.547-4.367,6.82-10.168,6.82-17.402V621.504z"/>
</g>
</svg>
