<?xml version="1.0" encoding="utf-8"?>
<!-- Generator: Adobe Illustrator 16.0.0, SVG Export Plug-In . SVG Version: 6.00 Build 0)  -->
<!DOCTYPE svg PUBLIC "-//W3C//DTD SVG 1.1//EN" "http://www.w3.org/Graphics/SVG/1.1/DTD/svg11.dtd">
<svg version="1.1" id="Layer_1" xmlns="http://www.w3.org/2000/svg" xmlns:xlink="http://www.w3.org/1999/xlink" x="0px" y="0px"
	 width="1000px" height="1000px" viewBox="0 0 1000 1000" enable-background="new 0 0 1000 1000" xml:space="preserve">
<rect x="-4.23" y="-10.231" fill="#171617" width="1011.102" height="1020.102"/>
<g>
	<path fill="#FFFFFF" d="M386.861,357.35h21.812L374.04,459.228h-23.554L315.923,357.35h21.811l19.163,60.625
		c1.067,3.578,2.171,7.746,3.311,12.508c1.138,4.763,1.847,8.072,2.125,9.931c0.511-4.274,2.253-11.753,5.227-22.438L386.861,357.35
		z"/>
	<path fill="#FFFFFF" d="M416.062,361.182c0-6.922,3.855-10.383,11.568-10.383c7.711,0,11.567,3.461,11.567,10.383
		c0,3.299-0.966,5.865-2.893,7.7c-1.929,1.836-4.82,2.752-8.675,2.752C419.918,371.635,416.062,368.151,416.062,361.182z
		 M438.222,459.227h-21.253v-77.905h21.253V459.227z"/>
	<path fill="#FFFFFF" d="M476.203,459.227l-29.687-77.906h22.23l15.052,44.389c1.532,4.832,2.53,10.15,2.996,15.957h0.557
		c0.279-5.249,1.324-10.567,3.136-15.957l14.981-44.389h22.229l-29.685,77.906H476.203z"/>
	<path fill="#FFFFFF" d="M571.253,460.622c-12.543,0-22.346-3.46-29.406-10.384c-7.062-6.921-10.592-16.724-10.592-29.406
		c0-13.053,3.264-23.146,9.792-30.277c6.525-7.13,15.549-10.696,27.07-10.696c11.011,0,19.582,3.136,25.714,9.407
		s9.198,14.937,9.198,25.992v10.312h-50.242c0.232,6.04,2.021,10.756,5.365,14.146c3.345,3.393,8.037,5.087,14.076,5.087
		c4.691,0,9.129-0.487,13.311-1.463c4.181-0.976,8.547-2.531,13.1-4.668v16.445c-3.717,1.858-7.689,3.24-11.916,4.146
		C582.495,460.169,577.339,460.622,571.253,460.622z M568.257,394.979c-4.506,0-8.038,1.429-10.592,4.285
		c-2.555,2.856-4.019,6.91-4.391,12.159H583.1c-0.094-5.249-1.464-9.303-4.111-12.159
		C576.34,396.408,572.762,394.979,568.257,394.979z"/>
	<path fill="#FFFFFF" d="M637.875,416.86l9.268-11.847l21.812-23.691h23.971l-30.939,33.796l32.821,44.11h-24.528l-22.438-31.567
		l-9.128,7.317v24.25h-21.254V350.8h21.254v48.361l-1.115,17.699H637.875z"/>
	<path fill="#FFFFFF" d="M280.938,513.037h21.811l-34.633,101.878h-23.553L210,513.037h21.811l19.163,60.625
		c1.068,3.578,2.172,7.747,3.311,12.509c1.138,4.763,1.847,8.071,2.125,9.93c0.51-4.273,2.252-11.753,5.226-22.438L280.938,513.037z
		"/>
	<path fill="#FFFFFF" d="M359.126,614.914l-4.111-10.592h-0.557c-3.578,4.507-7.259,7.631-11.045,9.373
		c-3.787,1.742-8.723,2.612-14.808,2.612c-7.48,0-13.369-2.136-17.665-6.411c-4.298-4.273-6.446-10.358-6.446-18.257
		c0-8.269,2.892-14.366,8.676-18.292c5.784-3.925,14.504-6.097,26.167-6.516l13.519-0.418v-3.415
		c0-7.897-4.041-11.847-12.125-11.847c-6.226,0-13.542,1.882-21.95,5.645l-7.039-14.355c8.965-4.691,18.907-7.038,29.825-7.038
		c10.453,0,18.466,2.277,24.042,6.829c5.574,4.554,8.362,11.474,8.362,20.766v51.914h-14.845V614.914z M352.854,578.818
		l-8.223,0.279c-6.179,0.187-10.778,1.301-13.797,3.345c-3.021,2.044-4.529,5.156-4.529,9.338c0,5.992,3.437,8.989,10.313,8.989
		c4.923,0,8.86-1.417,11.812-4.252c2.949-2.832,4.425-6.596,4.425-11.288V578.818L352.854,578.818z"/>
	<path fill="#FFFFFF" d="M417.665,616.308c-9.153,0-16.342-3.555-21.568-10.662s-7.839-16.956-7.839-29.546
		c0-12.775,2.658-22.728,7.979-29.859c5.318-7.13,12.648-10.696,21.986-10.696c9.801,0,17.281,3.81,22.438,11.428h0.696
		c-1.069-5.806-1.604-10.986-1.604-15.54v-24.946h21.324v108.428h-16.307l-4.111-10.104h-0.906
		C434.922,612.475,427.56,616.308,417.665,616.308z M425.12,599.375c5.437,0,9.418-1.579,11.951-4.738
		c2.531-3.159,3.913-8.525,4.146-16.098v-2.299c0-8.362-1.29-14.355-3.868-17.979c-2.578-3.624-6.771-5.436-12.577-5.436
		c-4.739,0-8.422,2.011-11.046,6.028c-2.625,4.019-3.936,9.859-3.936,17.524c0,7.666,1.323,13.416,3.972,17.248
		C416.41,597.459,420.195,599.375,425.12,599.375z"/>
	<path fill="#FFFFFF" d="M551.25,575.822c0,12.683-3.345,22.602-10.034,29.755c-6.69,7.154-16.005,10.731-27.943,10.731
		c-7.48,0-14.075-1.637-19.789-4.912s-10.104-7.979-13.171-14.111s-4.599-13.286-4.599-21.463c0-12.728,3.32-22.623,9.964-29.686
		c6.644-7.062,15.98-10.593,28.013-10.593c7.479,0,14.075,1.628,19.79,4.879c5.714,3.252,10.104,7.921,13.17,14.007
		C549.717,560.515,551.25,567.645,551.25,575.822z M497.385,575.822c0,7.712,1.266,13.543,3.798,17.491
		c2.531,3.949,6.654,5.923,12.368,5.923c5.667,0,9.744-1.962,12.23-5.888c2.484-3.926,3.728-9.768,3.728-17.526
		c0-7.712-1.255-13.495-3.763-17.352c-2.509-3.855-6.62-5.783-12.335-5.783c-5.668,0-9.756,1.917-12.263,5.749
		C498.64,562.268,497.385,568.064,497.385,575.822z"/>
	<path fill="#FFFFFF" d="M587.211,614.914h-21.254V506.486h21.254V614.914z"/>
	<path fill="#FFFFFF" d="M605.749,516.87c0-6.922,3.855-10.384,11.567-10.384s11.568,3.462,11.568,10.384
		c0,3.299-0.965,5.865-2.893,7.699c-1.929,1.836-4.82,2.752-8.675,2.752C609.604,527.321,605.749,523.838,605.749,516.87z
		 M627.909,614.914h-21.254v-77.905h21.254V614.914z"/>
	<path fill="#FFFFFF" d="M636.204,537.009h23.274l14.703,43.83c1.255,3.81,2.113,8.316,2.579,13.52h0.418
		c0.511-4.784,1.509-9.291,2.996-13.52l14.425-43.83h22.786l-32.961,87.871c-3.021,8.128-7.329,14.216-12.927,18.257
		c-5.599,4.042-12.137,6.063-19.615,6.063c-3.671,0-7.271-0.396-10.801-1.185v-16.863c2.555,0.603,5.341,0.905,8.362,0.905
		c3.763,0,7.048-1.148,9.859-3.448c2.811-2.3,5.006-5.773,6.585-10.419l1.256-3.832L636.204,537.009z"/>
	<path fill="#FFFFFF" d="M775.156,614.914l-4.111-10.592h-0.558c-3.578,4.507-7.258,7.631-11.044,9.373
		c-3.787,1.742-8.723,2.612-14.809,2.612c-7.479,0-13.367-2.136-17.664-6.411c-4.298-4.273-6.446-10.358-6.446-18.257
		c0-8.269,2.893-14.366,8.677-18.292c5.783-3.925,14.503-6.097,26.165-6.516l13.519-0.418v-3.415
		c0-7.897-4.041-11.847-12.124-11.847c-6.227,0-13.543,1.882-21.951,5.645l-7.038-14.355c8.965-4.691,18.906-7.038,29.825-7.038
		c10.452,0,18.467,2.277,24.041,6.829c5.575,4.554,8.362,11.474,8.362,20.766v51.914h-14.844V614.914z M768.885,578.818
		l-8.223,0.279c-6.18,0.187-10.778,1.301-13.799,3.345c-3.02,2.044-4.528,5.156-4.528,9.338c0,5.992,3.438,8.989,10.312,8.989
		c4.924,0,8.861-1.417,11.812-4.252c2.95-2.832,4.424-6.596,4.424-11.288L768.885,578.818L768.885,578.818z"/>
</g>
</svg>
