<?xml version="1.0" encoding="utf-8"?>
<!-- Generator: Adobe Illustrator 23.0.1, SVG Export Plug-In . SVG Version: 6.00 Build 0)  -->
<svg version="1.1" id="Layer_1" xmlns="http://www.w3.org/2000/svg" xmlns:xlink="http://www.w3.org/1999/xlink" x="0px" y="0px"
	 viewBox="0 0 1000 1000" style="enable-background:new 0 0 1000 1000;" xml:space="preserve">
<style type="text/css">
	.st0{fill:#171617;}
	.st1{fill:#FFFFFF;}
	.st2{fill:none;}
</style>
<rect x="-4.2" y="-10.2" class="st0" width="1011.1" height="1020.1"/>
<g>
	<path class="st1" d="M386.9,364.4h21.8L374,466.2h-23.6l-34.6-101.9h21.8l19.2,60.6c1.1,3.6,2.2,7.7,3.3,12.5
		c1.1,4.8,1.8,8.1,2.1,9.9c0.5-4.3,2.3-11.8,5.2-22.4L386.9,364.4z"/>
	<path class="st1" d="M416.1,368.2c0-6.9,3.9-10.4,11.6-10.4c7.7,0,11.6,3.5,11.6,10.4c0,3.3-1,5.9-2.9,7.7
		c-1.9,1.8-4.8,2.8-8.7,2.8C419.9,378.6,416.1,375.2,416.1,368.2z M438.2,466.2H417v-77.9h21.3V466.2z"/>
	<path class="st1" d="M476.2,466.2l-29.7-77.9h22.2l15.1,44.4c1.5,4.8,2.5,10.1,3,16h0.6c0.3-5.2,1.3-10.6,3.1-16l15-44.4h22.2
		L498,466.2H476.2z"/>
	<path class="st1" d="M571.3,467.6c-12.5,0-22.3-3.5-29.4-10.4c-7.1-6.9-10.6-16.7-10.6-29.4c0-13.1,3.3-23.1,9.8-30.3
		c6.5-7.1,15.5-10.7,27.1-10.7c11,0,19.6,3.1,25.7,9.4s9.2,14.9,9.2,26v10.3h-50.2c0.2,6,2,10.8,5.4,14.1c3.3,3.4,8,5.1,14.1,5.1
		c4.7,0,9.1-0.5,13.3-1.5c4.2-1,8.5-2.5,13.1-4.7v16.4c-3.7,1.9-7.7,3.2-11.9,4.1C582.5,467.2,577.3,467.6,571.3,467.6z M568.3,402
		c-4.5,0-8,1.4-10.6,4.3c-2.6,2.9-4,6.9-4.4,12.2h29.8c-0.1-5.2-1.5-9.3-4.1-12.2C576.3,403.4,572.8,402,568.3,402z"/>
	<path class="st1" d="M637.9,423.9l9.3-11.8l21.8-23.7h24L662,422.1l32.8,44.1h-24.5l-22.4-31.6l-9.1,7.3v24.2h-21.3V357.8h21.3
		v48.4l-1.1,17.7H637.9z"/>
	<path class="st1" d="M280.9,548h21.8l-34.6,101.9h-23.6L210,548h21.8l19.2,60.6c1.1,3.6,2.2,7.7,3.3,12.5c1.1,4.8,1.8,8.1,2.1,9.9
		c0.5-4.3,2.3-11.8,5.2-22.4L280.9,548z"/>
	<path class="st1" d="M359.1,649.9l-4.1-10.6h-0.6c-3.6,4.5-7.3,7.6-11,9.4c-3.8,1.7-8.7,2.6-14.8,2.6c-7.5,0-13.4-2.1-17.7-6.4
		c-4.3-4.3-6.4-10.4-6.4-18.3c0-8.3,2.9-14.4,8.7-18.3c5.8-3.9,14.5-6.1,26.2-6.5l13.5-0.4V598c0-7.9-4-11.8-12.1-11.8
		c-6.2,0-13.5,1.9-22,5.6l-7-14.4c9-4.7,18.9-7,29.8-7c10.5,0,18.5,2.3,24,6.8c5.6,4.6,8.4,11.5,8.4,20.8v51.9L359.1,649.9
		L359.1,649.9L359.1,649.9z M352.9,613.8l-8.2,0.3c-6.2,0.2-10.8,1.3-13.8,3.3c-3,2-4.5,5.2-4.5,9.3c0,6,3.4,9,10.3,9
		c4.9,0,8.9-1.4,11.8-4.3c2.9-2.8,4.4-6.6,4.4-11.3L352.9,613.8L352.9,613.8z"/>
	<path class="st1" d="M417.7,651.3c-9.2,0-16.3-3.6-21.6-10.7s-7.8-17-7.8-29.5c0-12.8,2.7-22.7,8-29.9c5.3-7.1,12.6-10.7,22-10.7
		c9.8,0,17.3,3.8,22.4,11.4h0.7c-1.1-5.8-1.6-11-1.6-15.5v-24.9h21.3v108.4h-16.3l-4.1-10.1h-0.9
		C434.9,647.5,427.6,651.3,417.7,651.3z M425.1,634.4c5.4,0,9.4-1.6,12-4.7c2.5-3.2,3.9-8.5,4.1-16.1v-2.3c0-8.4-1.3-14.4-3.9-18
		s-6.8-5.4-12.6-5.4c-4.7,0-8.4,2-11,6c-2.6,4-3.9,9.9-3.9,17.5c0,7.7,1.3,13.4,4,17.2C416.4,632.5,420.2,634.4,425.1,634.4z"/>
	<path class="st1" d="M551.2,610.8c0,12.7-3.3,22.6-10,29.8c-6.7,7.2-16,10.7-27.9,10.7c-7.5,0-14.1-1.6-19.8-4.9s-10.1-8-13.2-14.1
		s-4.6-13.3-4.6-21.5c0-12.7,3.3-22.6,10-29.7c6.6-7.1,16-10.6,28-10.6c7.5,0,14.1,1.6,19.8,4.9c5.7,3.3,10.1,7.9,13.2,14
		C549.7,595.5,551.2,602.6,551.2,610.8z M497.4,610.8c0,7.7,1.3,13.5,3.8,17.5c2.5,3.9,6.7,5.9,12.4,5.9c5.7,0,9.7-2,12.2-5.9
		c2.5-3.9,3.7-9.8,3.7-17.5c0-7.7-1.3-13.5-3.8-17.4c-2.5-3.9-6.6-5.8-12.3-5.8c-5.7,0-9.8,1.9-12.3,5.7
		C498.6,597.3,497.4,603.1,497.4,610.8z"/>
	<path class="st1" d="M587.2,649.9H566V541.5h21.3V649.9z"/>
	<path class="st1" d="M605.7,551.9c0-6.9,3.9-10.4,11.6-10.4s11.6,3.5,11.6,10.4c0,3.3-1,5.9-2.9,7.7c-1.9,1.8-4.8,2.8-8.7,2.8
		C609.6,562.3,605.7,558.8,605.7,551.9z M627.9,649.9h-21.3V572h21.3V649.9z"/>
	<path class="st1" d="M636.2,572h23.3l14.7,43.8c1.3,3.8,2.1,8.3,2.6,13.5h0.4c0.5-4.8,1.5-9.3,3-13.5l14.4-43.8h22.8l-33,87.9
		c-3,8.1-7.3,14.2-12.9,18.3c-5.6,4-12.1,6.1-19.6,6.1c-3.7,0-7.3-0.4-10.8-1.2v-16.9c2.6,0.6,5.3,0.9,8.4,0.9c3.8,0,7-1.1,9.9-3.4
		c2.8-2.3,5-5.8,6.6-10.4l1.3-3.8L636.2,572z"/>
	<path class="st1" d="M775.2,649.9l-4.1-10.6h-0.6c-3.6,4.5-7.3,7.6-11,9.4c-3.8,1.7-8.7,2.6-14.8,2.6c-7.5,0-13.4-2.1-17.7-6.4
		c-4.3-4.3-6.4-10.4-6.4-18.3c0-8.3,2.9-14.4,8.7-18.3c5.8-3.9,14.5-6.1,26.2-6.5l13.5-0.4V598c0-7.9-4-11.8-12.1-11.8
		c-6.2,0-13.5,1.9-22,5.6l-7-14.4c9-4.7,18.9-7,29.8-7c10.5,0,18.5,2.3,24,6.8c5.6,4.6,8.4,11.5,8.4,20.8v51.9L775.2,649.9
		L775.2,649.9L775.2,649.9z M768.9,613.8l-8.2,0.3c-6.2,0.2-10.8,1.3-13.8,3.3c-3,2-4.5,5.2-4.5,9.3c0,6,3.4,9,10.3,9
		c4.9,0,8.9-1.4,11.8-4.3c3-2.8,4.4-6.6,4.4-11.3L768.9,613.8L768.9,613.8z"/>
</g>
</svg>
